<svg xmlns="http://www.w3.org/2000/svg" viewBox="0 0 900 500" font-family="Hiragino Sans, Yu Gothic, Meiryo, sans-serif">
<rect width="900" height="500" fill="#fbfaf6"/>
<text x="58" y="24" font-size="16" font-weight="700" fill="#1d1c19">三人将棋AI 成長曲線（推定の強さ、足場＝0）</text>
<line x1="58" x2="876" y1="408.0" y2="408.0" stroke="#dedbd0" stroke-dasharray="2 4"/>
<text x="50" y="412.0" font-size="11" fill="#8a867b" text-anchor="end">0</text>
<line x1="58" x2="876" y1="349.3" y2="349.3" stroke="#dedbd0" stroke-dasharray="2 4"/>
<text x="50" y="353.3" font-size="11" fill="#8a867b" text-anchor="end">400</text>
<line x1="58" x2="876" y1="290.7" y2="290.7" stroke="#dedbd0" stroke-dasharray="2 4"/>
<text x="50" y="294.7" font-size="11" fill="#8a867b" text-anchor="end">800</text>
<line x1="58" x2="876" y1="232.0" y2="232.0" stroke="#dedbd0" stroke-dasharray="2 4"/>
<text x="50" y="236.0" font-size="11" fill="#8a867b" text-anchor="end">1200</text>
<line x1="58" x2="876" y1="173.3" y2="173.3" stroke="#dedbd0" stroke-dasharray="2 4"/>
<text x="50" y="177.3" font-size="11" fill="#8a867b" text-anchor="end">1600</text>
<line x1="58" x2="876" y1="114.7" y2="114.7" stroke="#dedbd0" stroke-dasharray="2 4"/>
<text x="50" y="118.7" font-size="11" fill="#8a867b" text-anchor="end">2000</text>
<line x1="58" x2="876" y1="56.0" y2="56.0" stroke="#dedbd0" stroke-dasharray="2 4"/>
<text x="50" y="60.0" font-size="11" fill="#8a867b" text-anchor="end">2400</text>
<text x="58.0" y="426" font-size="11" fill="#8a867b" text-anchor="middle">0</text>
<text x="164.7" y="426" font-size="11" fill="#8a867b" text-anchor="middle">50</text>
<text x="271.4" y="426" font-size="11" fill="#8a867b" text-anchor="middle">100</text>
<text x="378.2" y="426" font-size="11" fill="#8a867b" text-anchor="middle">150</text>
<text x="484.9" y="426" font-size="11" fill="#8a867b" text-anchor="middle">200</text>
<text x="591.6" y="426" font-size="11" fill="#8a867b" text-anchor="middle">250</text>
<text x="698.3" y="426" font-size="11" fill="#8a867b" text-anchor="middle">300</text>
<text x="805.0" y="426" font-size="11" fill="#8a867b" text-anchor="middle">350</text>
<text x="876" y="444" font-size="11" fill="#8a867b" text-anchor="end">今の最強に至る系列の自己対局（千局）</text>
<line x1="282.1" x2="282.1" y1="48" y2="408" stroke="#b48a2c" stroke-dasharray="3 3"/>
<text x="286.1" y="44" font-size="11" fill="#55524a">3ルール混合</text>
<line x1="412.3" x2="412.3" y1="48" y2="408" stroke="#b48a2c" stroke-dasharray="3 3"/>
<text x="416.3" y="30" font-size="11" fill="#55524a">過去の世代を混ぜる</text>
<line x1="497.7" x2="497.7" y1="48" y2="408" stroke="#b48a2c" stroke-dasharray="3 3"/>
<text x="501.7" y="44" font-size="11" fill="#55524a">データ窓150万</text>
<line x1="580.9" x2="580.9" y1="48" y2="408" stroke="#b48a2c" stroke-dasharray="3 3"/>
<text x="584.9" y="30" font-size="11" fill="#55524a">12ブロックに蒸留</text>
<line x1="753.8" x2="753.8" y1="48" y2="408" stroke="#b48a2c" stroke-dasharray="3 3"/>
<text x="757.8" y="44" font-size="11" fill="#55524a">窓300万</text>
<polyline fill="none" stroke="#2a78d6" stroke-width="2" stroke-linejoin="round" points="58.0,408.0 122.0,362.3 143.4,316.7 164.7,303.7 186.1,273.3 228.8,243.5"/>
<circle cx="122.0" cy="362.3" r="4.5" fill="#2a78d6" stroke="#fbfaf6" stroke-width="2"/>
<circle cx="143.4" cy="316.7" r="4.5" fill="#2a78d6" stroke="#fbfaf6" stroke-width="2"/>
<circle cx="164.7" cy="303.7" r="4.5" fill="#2a78d6" stroke="#fbfaf6" stroke-width="2"/>
<circle cx="186.1" cy="273.3" r="4.5" fill="#2a78d6" stroke="#fbfaf6" stroke-width="2"/>
<circle cx="228.8" cy="243.5" r="4.5" fill="#2a78d6" stroke="#fbfaf6" stroke-width="2"/>
<text x="220.8" y="231.5" font-size="12" font-weight="700" fill="#1d1c19" text-anchor="end">p4 世代51 1122</text>
<polyline fill="none" stroke="#eb6834" stroke-width="2" stroke-linejoin="round" points="228.8,243.5 228.8,231.7 250.1,225.5 280.0,225.8"/>
<circle cx="228.8" cy="231.7" r="4.5" fill="#eb6834" stroke="#fbfaf6" stroke-width="2"/>
<circle cx="250.1" cy="225.5" r="4.5" fill="#eb6834" stroke="#fbfaf6" stroke-width="2"/>
<circle cx="280.0" cy="225.8" r="4.5" fill="#eb6834" stroke="#fbfaf6" stroke-width="2"/>
<text x="272.0" y="213.8" font-size="12" font-weight="700" fill="#1d1c19" text-anchor="end">p5c 世代25 1242</text>
<polyline fill="none" stroke="#1baf7a" stroke-width="2" stroke-linejoin="round" points="280.0,225.8 324.8,197.1 367.5,181.5 410.2,177.1 452.9,167.6 495.5,157.1 538.2,137.7 580.9,132.9"/>
<circle cx="324.8" cy="197.1" r="4.5" fill="#1baf7a" stroke="#fbfaf6" stroke-width="2"/>
<circle cx="367.5" cy="181.5" r="4.5" fill="#1baf7a" stroke="#fbfaf6" stroke-width="2"/>
<circle cx="410.2" cy="177.1" r="4.5" fill="#1baf7a" stroke="#fbfaf6" stroke-width="2"/>
<circle cx="452.9" cy="167.6" r="4.5" fill="#1baf7a" stroke="#fbfaf6" stroke-width="2"/>
<circle cx="495.5" cy="157.1" r="4.5" fill="#1baf7a" stroke="#fbfaf6" stroke-width="2"/>
<circle cx="538.2" cy="137.7" r="4.5" fill="#1baf7a" stroke="#fbfaf6" stroke-width="2"/>
<circle cx="580.9" cy="132.9" r="4.5" fill="#1baf7a" stroke="#fbfaf6" stroke-width="2"/>
<text x="572.9" y="120.9" font-size="12" font-weight="700" fill="#1d1c19" text-anchor="end">pmix 世代141 1876</text>
<polyline fill="none" stroke="#4a3aa7" stroke-width="2" stroke-linejoin="round" points="580.9,132.9 580.9,125.2 625.7,132.5 668.4,122.1 711.1,112.2 753.8,112.7 796.5,103.1 815.7,100.3 837.0,98.7"/>
<circle cx="580.9" cy="125.2" r="4.5" fill="#4a3aa7" stroke="#fbfaf6" stroke-width="2"/>
<circle cx="625.7" cy="132.5" r="4.5" fill="#4a3aa7" stroke="#fbfaf6" stroke-width="2"/>
<circle cx="668.4" cy="122.1" r="4.5" fill="#4a3aa7" stroke="#fbfaf6" stroke-width="2"/>
<circle cx="711.1" cy="112.2" r="4.5" fill="#4a3aa7" stroke="#fbfaf6" stroke-width="2"/>
<circle cx="753.8" cy="112.7" r="4.5" fill="#4a3aa7" stroke="#fbfaf6" stroke-width="2"/>
<circle cx="796.5" cy="103.1" r="4.5" fill="#4a3aa7" stroke="#fbfaf6" stroke-width="2"/>
<circle cx="815.7" cy="100.3" r="4.5" fill="#4a3aa7" stroke="#fbfaf6" stroke-width="2"/>
<circle cx="837.0" cy="98.7" r="4.5" fill="#4a3aa7" stroke="#fbfaf6" stroke-width="2"/>
<text x="829.0" y="86.7" font-size="12" font-weight="700" fill="#1d1c19" text-anchor="end">pbig2 世代120 2109</text>
<circle cx="58.0" cy="408.0" r="4.5" fill="#8a867b"/>
<rect x="58" y="465" width="16" height="3" rx="1.5" fill="#2a78d6"/>
<text x="80" y="470" font-size="11" fill="#55524a">p4（6ブロック×96ch）</text>
<rect x="438" y="465" width="16" height="3" rx="1.5" fill="#eb6834"/>
<text x="460" y="470" font-size="11" fill="#55524a">p5c（10ブロック、全部持ち駒）</text>
<rect x="58" y="483" width="16" height="3" rx="1.5" fill="#1baf7a"/>
<text x="80" y="488" font-size="11" fill="#55524a">pmix（10ブロック、3ルール混合）</text>
<rect x="438" y="483" width="16" height="3" rx="1.5" fill="#4a3aa7"/>
<text x="460" y="488" font-size="11" fill="#55524a">pbig / pbig2（12ブロック×160ch）</text>
</svg>