<svg xmlns="http://www.w3.org/2000/svg" viewBox="0 0 900 500" font-family="Hiragino Sans, Yu Gothic, Meiryo, sans-serif">
<rect width="900" height="500" fill="#fbfaf6"/>
<text x="58" y="24" font-size="16" font-weight="700" fill="#1d1c19">三人将棋AI 成長曲線（推定の強さ、足場＝0）</text>
<line x1="58" x2="876" y1="408.0" y2="408.0" stroke="#dedbd0" stroke-dasharray="2 4"/>
<text x="50" y="412.0" font-size="11" fill="#8a867b" text-anchor="end">0</text>
<line x1="58" x2="876" y1="349.3" y2="349.3" stroke="#dedbd0" stroke-dasharray="2 4"/>
<text x="50" y="353.3" font-size="11" fill="#8a867b" text-anchor="end">400</text>
<line x1="58" x2="876" y1="290.7" y2="290.7" stroke="#dedbd0" stroke-dasharray="2 4"/>
<text x="50" y="294.7" font-size="11" fill="#8a867b" text-anchor="end">800</text>
<line x1="58" x2="876" y1="232.0" y2="232.0" stroke="#dedbd0" stroke-dasharray="2 4"/>
<text x="50" y="236.0" font-size="11" fill="#8a867b" text-anchor="end">1200</text>
<line x1="58" x2="876" y1="173.3" y2="173.3" stroke="#dedbd0" stroke-dasharray="2 4"/>
<text x="50" y="177.3" font-size="11" fill="#8a867b" text-anchor="end">1600</text>
<line x1="58" x2="876" y1="114.7" y2="114.7" stroke="#dedbd0" stroke-dasharray="2 4"/>
<text x="50" y="118.7" font-size="11" fill="#8a867b" text-anchor="end">2000</text>
<line x1="58" x2="876" y1="56.0" y2="56.0" stroke="#dedbd0" stroke-dasharray="2 4"/>
<text x="50" y="60.0" font-size="11" fill="#8a867b" text-anchor="end">2400</text>
<text x="58.0" y="426" font-size="11" fill="#8a867b" text-anchor="middle">0</text>
<text x="170.6" y="426" font-size="11" fill="#8a867b" text-anchor="middle">50</text>
<text x="283.2" y="426" font-size="11" fill="#8a867b" text-anchor="middle">100</text>
<text x="395.7" y="426" font-size="11" fill="#8a867b" text-anchor="middle">150</text>
<text x="508.3" y="426" font-size="11" fill="#8a867b" text-anchor="middle">200</text>
<text x="620.9" y="426" font-size="11" fill="#8a867b" text-anchor="middle">250</text>
<text x="733.5" y="426" font-size="11" fill="#8a867b" text-anchor="middle">300</text>
<text x="846.1" y="426" font-size="11" fill="#8a867b" text-anchor="middle">350</text>
<text x="876" y="444" font-size="11" fill="#8a867b" text-anchor="end">今の最強に至る系列の自己対局（千局）</text>
<line x1="294.4" x2="294.4" y1="48" y2="408" stroke="#b48a2c" stroke-dasharray="3 3"/>
<text x="298.4" y="44" font-size="11" fill="#55524a">3ルール混合</text>
<line x1="431.8" x2="431.8" y1="48" y2="408" stroke="#b48a2c" stroke-dasharray="3 3"/>
<text x="435.8" y="30" font-size="11" fill="#55524a">過去の世代を混ぜる</text>
<line x1="521.8" x2="521.8" y1="48" y2="408" stroke="#b48a2c" stroke-dasharray="3 3"/>
<text x="525.8" y="44" font-size="11" fill="#55524a">データ窓150万</text>
<line x1="609.6" x2="609.6" y1="48" y2="408" stroke="#b48a2c" stroke-dasharray="3 3"/>
<text x="613.6" y="30" font-size="11" fill="#55524a">12ブロックに蒸留</text>
<line x1="792.0" x2="792.0" y1="48" y2="408" stroke="#b48a2c" stroke-dasharray="3 3"/>
<text x="796.0" y="44" font-size="11" fill="#55524a">窓300万</text>
<polyline fill="none" stroke="#2a78d6" stroke-width="2" stroke-linejoin="round" points="58.0,408.0 125.5,362.3 148.1,316.7 170.6,303.7 193.1,273.3 238.1,243.5"/>
<circle cx="125.5" cy="362.3" r="4.5" fill="#2a78d6" stroke="#fbfaf6" stroke-width="2"/>
<circle cx="148.1" cy="316.7" r="4.5" fill="#2a78d6" stroke="#fbfaf6" stroke-width="2"/>
<circle cx="170.6" cy="303.7" r="4.5" fill="#2a78d6" stroke="#fbfaf6" stroke-width="2"/>
<circle cx="193.1" cy="273.3" r="4.5" fill="#2a78d6" stroke="#fbfaf6" stroke-width="2"/>
<circle cx="238.1" cy="243.5" r="4.5" fill="#2a78d6" stroke="#fbfaf6" stroke-width="2"/>
<text x="230.1" y="231.5" font-size="12" font-weight="700" fill="#1d1c19" text-anchor="end">p4 世代51 1122</text>
<polyline fill="none" stroke="#eb6834" stroke-width="2" stroke-linejoin="round" points="238.1,243.5 238.1,231.7 260.6,225.5 292.2,225.8"/>
<circle cx="238.1" cy="231.7" r="4.5" fill="#eb6834" stroke="#fbfaf6" stroke-width="2"/>
<circle cx="260.6" cy="225.5" r="4.5" fill="#eb6834" stroke="#fbfaf6" stroke-width="2"/>
<circle cx="292.2" cy="225.8" r="4.5" fill="#eb6834" stroke="#fbfaf6" stroke-width="2"/>
<text x="284.2" y="213.8" font-size="12" font-weight="700" fill="#1d1c19" text-anchor="end">p5c 世代25 1242</text>
<polyline fill="none" stroke="#1baf7a" stroke-width="2" stroke-linejoin="round" points="292.2,225.8 339.4,197.1 384.5,181.5 429.5,177.1 474.5,167.6 519.6,157.1 564.6,137.7 609.6,132.9"/>
<circle cx="339.4" cy="197.1" r="4.5" fill="#1baf7a" stroke="#fbfaf6" stroke-width="2"/>
<circle cx="384.5" cy="181.5" r="4.5" fill="#1baf7a" stroke="#fbfaf6" stroke-width="2"/>
<circle cx="429.5" cy="177.1" r="4.5" fill="#1baf7a" stroke="#fbfaf6" stroke-width="2"/>
<circle cx="474.5" cy="167.6" r="4.5" fill="#1baf7a" stroke="#fbfaf6" stroke-width="2"/>
<circle cx="519.6" cy="157.1" r="4.5" fill="#1baf7a" stroke="#fbfaf6" stroke-width="2"/>
<circle cx="564.6" cy="137.7" r="4.5" fill="#1baf7a" stroke="#fbfaf6" stroke-width="2"/>
<circle cx="609.6" cy="132.9" r="4.5" fill="#1baf7a" stroke="#fbfaf6" stroke-width="2"/>
<text x="601.6" y="120.9" font-size="12" font-weight="700" fill="#1d1c19" text-anchor="end">pmix 世代141 1876</text>
<polyline fill="none" stroke="#4a3aa7" stroke-width="2" stroke-linejoin="round" points="609.6,132.9 609.6,125.2 656.9,132.5 702.0,122.1 747.0,112.2 792.0,112.7 837.0,103.1"/>
<circle cx="609.6" cy="125.2" r="4.5" fill="#4a3aa7" stroke="#fbfaf6" stroke-width="2"/>
<circle cx="656.9" cy="132.5" r="4.5" fill="#4a3aa7" stroke="#fbfaf6" stroke-width="2"/>
<circle cx="702.0" cy="122.1" r="4.5" fill="#4a3aa7" stroke="#fbfaf6" stroke-width="2"/>
<circle cx="747.0" cy="112.2" r="4.5" fill="#4a3aa7" stroke="#fbfaf6" stroke-width="2"/>
<circle cx="792.0" cy="112.7" r="4.5" fill="#4a3aa7" stroke="#fbfaf6" stroke-width="2"/>
<circle cx="837.0" cy="103.1" r="4.5" fill="#4a3aa7" stroke="#fbfaf6" stroke-width="2"/>
<text x="829.0" y="91.1" font-size="12" font-weight="700" fill="#1d1c19" text-anchor="end">pbig2 世代101 2079</text>
<circle cx="58.0" cy="408.0" r="4.5" fill="#8a867b"/>
<rect x="58" y="465" width="16" height="3" rx="1.5" fill="#2a78d6"/>
<text x="80" y="470" font-size="11" fill="#55524a">p4（6ブロック×96ch）</text>
<rect x="438" y="465" width="16" height="3" rx="1.5" fill="#eb6834"/>
<text x="460" y="470" font-size="11" fill="#55524a">p5c（10ブロック、全部持ち駒）</text>
<rect x="58" y="483" width="16" height="3" rx="1.5" fill="#1baf7a"/>
<text x="80" y="488" font-size="11" fill="#55524a">pmix（10ブロック、3ルール混合）</text>
<rect x="438" y="483" width="16" height="3" rx="1.5" fill="#4a3aa7"/>
<text x="460" y="488" font-size="11" fill="#55524a">pbig / pbig2（12ブロック×160ch）</text>
</svg>